<mxfile host="65bd71144e">
    <diagram id="wHYKtcEm2_Ui_n2GpKXf" name="ページ1">
        <mxGraphModel dx="462" dy="334" grid="1" gridSize="3.937" guides="1" tooltips="1" connect="1" arrows="1" fold="1" page="1" pageScale="1" pageWidth="1169" pageHeight="827" math="1" shadow="0">
            <root>
                <mxCell id="0"/>
                <mxCell id="1" parent="0"/>
                <mxCell id="32" style="edgeStyle=none;shape=connector;rounded=1;html=1;entryX=0;entryY=0.5;entryDx=0;entryDy=0;strokeColor=default;align=center;verticalAlign=middle;fontFamily=Helvetica;fontSize=8;fontColor=default;labelBackgroundColor=default;resizable=1;startSize=1.1811;endArrow=classic;endSize=1.1811;" edge="1" parent="1" source="2" target="31">
                    <mxGeometry relative="1" as="geometry"/>
                </mxCell>
                <mxCell id="2" value="" style="shape=orEllipse;perimeter=ellipsePerimeter;whiteSpace=wrap;html=1;backgroundOutline=1;fillColor=none;" vertex="1" parent="1">
                    <mxGeometry x="346.453" y="220.47199999999998" width="15.748000000000017" height="15.748000000000017" as="geometry"/>
                </mxCell>
                <mxCell id="4" style="edgeStyle=none;html=1;entryX=0.5;entryY=0;entryDx=0;entryDy=0;endSize=1.1811;startSize=1.1811;" edge="1" parent="1" source="3" target="2">
                    <mxGeometry relative="1" as="geometry"/>
                </mxCell>
                <mxCell id="3" value="\(Z^{-M}\)" style="rounded=0;whiteSpace=wrap;html=1;fillColor=none;fontSize=8;" vertex="1" parent="1">
                    <mxGeometry x="338.584" y="196.84699999999998" width="31.49600000000005" height="15.74800000000001" as="geometry"/>
                </mxCell>
                <mxCell id="5" value="\(x\)" style="text;html=1;align=center;verticalAlign=middle;whiteSpace=wrap;rounded=0;fontFamily=Helvetica;fontSize=8;fontColor=default;labelBackgroundColor=none;" vertex="1" parent="1">
                    <mxGeometry x="307.081" y="220.465" width="15.74800000000001" height="15.747999999999996" as="geometry"/>
                </mxCell>
                <mxCell id="10" style="edgeStyle=none;shape=connector;rounded=1;html=1;entryX=0;entryY=0.5;entryDx=0;entryDy=0;strokeColor=default;align=center;verticalAlign=middle;fontFamily=Helvetica;fontSize=8;fontColor=default;labelBackgroundColor=default;resizable=1;startSize=1.1811;endArrow=classic;endSize=1.1811;" edge="1" parent="1" source="8" target="2">
                    <mxGeometry relative="1" as="geometry"/>
                </mxCell>
                <mxCell id="11" style="edgeStyle=orthogonalEdgeStyle;shape=connector;rounded=0;html=1;entryX=0;entryY=0.5;entryDx=0;entryDy=0;strokeColor=default;align=center;verticalAlign=middle;fontFamily=Helvetica;fontSize=8;fontColor=default;labelBackgroundColor=default;resizable=1;startSize=1.1811;endArrow=classic;endSize=1.1811;curved=0;" edge="1" parent="1" source="8" target="3">
                    <mxGeometry relative="1" as="geometry">
                        <Array as="points">
                            <mxPoint x="331" y="214"/>
                            <mxPoint x="331" y="214"/>
                            <mxPoint x="331" y="205"/>
                            <mxPoint x="339" y="205"/>
                        </Array>
                    </mxGeometry>
                </mxCell>
                <mxCell id="8" value="" style="shape=waypoint;sketch=0;fillStyle=solid;size=6;pointerEvents=1;points=[];fillColor=none;resizable=1;rotatable=0;perimeter=centerPerimeter;snapToPoint=1;rounded=0;align=center;verticalAlign=middle;fontFamily=Helvetica;fontSize=8;fontColor=default;labelBackgroundColor=default;strokeWidth=0;" vertex="1" parent="1">
                    <mxGeometry x="326.768" y="224.40699999999998" width="7.8740000000000006" height="7.8740000000000006" as="geometry"/>
                </mxCell>
                <mxCell id="9" style="edgeStyle=none;shape=connector;rounded=1;html=1;entryX=0.208;entryY=0.568;entryDx=0;entryDy=0;entryPerimeter=0;strokeColor=default;align=center;verticalAlign=middle;fontFamily=Helvetica;fontSize=8;fontColor=default;labelBackgroundColor=default;resizable=1;startSize=1.1811;endArrow=none;endSize=1.1811;endFill=0;" edge="1" parent="1" source="5" target="8">
                    <mxGeometry relative="1" as="geometry"/>
                </mxCell>
                <mxCell id="44" style="edgeStyle=none;shape=connector;rounded=1;html=1;entryX=0;entryY=0.5;entryDx=0;entryDy=0;strokeColor=default;align=center;verticalAlign=middle;fontFamily=Helvetica;fontSize=8;fontColor=default;labelBackgroundColor=default;resizable=1;startSize=1.1811;endArrow=classic;endSize=1.1811;" edge="1" parent="1" source="12" target="43">
                    <mxGeometry relative="1" as="geometry"/>
                </mxCell>
                <mxCell id="12" value="" style="shape=orEllipse;perimeter=ellipsePerimeter;whiteSpace=wrap;html=1;backgroundOutline=1;fillColor=none;" vertex="1" parent="1">
                    <mxGeometry x="417.33" y="220.469" width="15.748000000000017" height="15.748000000000017" as="geometry"/>
                </mxCell>
                <mxCell id="13" style="edgeStyle=none;html=1;entryX=0.5;entryY=0;entryDx=0;entryDy=0;endSize=1.1811;startSize=1.1811;" edge="1" parent="1" source="14" target="12">
                    <mxGeometry relative="1" as="geometry"/>
                </mxCell>
                <mxCell id="14" value="\(Z^{-M}\)" style="rounded=0;whiteSpace=wrap;html=1;fillColor=none;fontSize=8;" vertex="1" parent="1">
                    <mxGeometry x="409.461" y="196.844" width="31.49600000000005" height="15.74800000000001" as="geometry"/>
                </mxCell>
                <mxCell id="15" style="edgeStyle=none;shape=connector;rounded=1;html=1;entryX=0;entryY=0.5;entryDx=0;entryDy=0;strokeColor=default;align=center;verticalAlign=middle;fontFamily=Helvetica;fontSize=8;fontColor=default;labelBackgroundColor=default;resizable=1;startSize=1.1811;endArrow=classic;endSize=1.1811;" edge="1" parent="1" source="17" target="12">
                    <mxGeometry relative="1" as="geometry"/>
                </mxCell>
                <mxCell id="16" style="edgeStyle=orthogonalEdgeStyle;shape=connector;rounded=0;html=1;entryX=0;entryY=0.5;entryDx=0;entryDy=0;strokeColor=default;align=center;verticalAlign=middle;fontFamily=Helvetica;fontSize=8;fontColor=default;labelBackgroundColor=default;resizable=1;startSize=1.1811;endArrow=classic;endSize=1.1811;curved=0;" edge="1" parent="1" source="17" target="14">
                    <mxGeometry relative="1" as="geometry">
                        <Array as="points">
                            <mxPoint x="401.76" y="214"/>
                            <mxPoint x="401.76" y="214"/>
                            <mxPoint x="401.76" y="205"/>
                            <mxPoint x="409.76" y="205"/>
                        </Array>
                    </mxGeometry>
                </mxCell>
                <mxCell id="17" value="" style="shape=waypoint;sketch=0;fillStyle=solid;size=6;pointerEvents=1;points=[];fillColor=none;resizable=1;rotatable=0;perimeter=centerPerimeter;snapToPoint=1;rounded=0;align=center;verticalAlign=middle;fontFamily=Helvetica;fontSize=8;fontColor=default;labelBackgroundColor=default;strokeWidth=0;" vertex="1" parent="1">
                    <mxGeometry x="397.645" y="224.404" width="7.8740000000000006" height="7.8740000000000006" as="geometry"/>
                </mxCell>
                <mxCell id="19" value="\(\cdots\)" style="text;html=1;align=center;verticalAlign=middle;whiteSpace=wrap;rounded=0;fontFamily=Helvetica;fontSize=8;fontColor=default;labelBackgroundColor=none;" vertex="1" parent="1">
                    <mxGeometry x="472.4679999999999" y="220.46200000000002" width="15.74800000000001" height="15.747999999999996" as="geometry"/>
                </mxCell>
                <mxCell id="47" style="edgeStyle=none;shape=connector;rounded=1;html=1;entryX=0;entryY=0.5;entryDx=0;entryDy=0;strokeColor=default;align=center;verticalAlign=middle;fontFamily=Helvetica;fontSize=8;fontColor=default;labelBackgroundColor=default;resizable=1;startSize=1.1811;endArrow=classic;endSize=1.1811;" edge="1" parent="1" target="46">
                    <mxGeometry relative="1" as="geometry">
                        <mxPoint x="519.7049999999955" y="228.34000000000003" as="sourcePoint"/>
                    </mxGeometry>
                </mxCell>
                <mxCell id="21" value="" style="shape=orEllipse;perimeter=ellipsePerimeter;whiteSpace=wrap;html=1;backgroundOutline=1;fillColor=none;" vertex="1" parent="1">
                    <mxGeometry x="511.8269999999998" y="220.466" width="15.748000000000017" height="15.748000000000017" as="geometry"/>
                </mxCell>
                <mxCell id="22" style="edgeStyle=none;html=1;entryX=0.5;entryY=0;entryDx=0;entryDy=0;endSize=1.1811;startSize=1.1811;" edge="1" parent="1" source="23" target="21">
                    <mxGeometry relative="1" as="geometry"/>
                </mxCell>
                <mxCell id="23" value="\(Z^{-M}\)" style="rounded=0;whiteSpace=wrap;html=1;fillColor=none;fontSize=8;" vertex="1" parent="1">
                    <mxGeometry x="503.95799999999997" y="196.841" width="31.49600000000005" height="15.74800000000001" as="geometry"/>
                </mxCell>
                <mxCell id="24" style="edgeStyle=none;shape=connector;rounded=1;html=1;entryX=0;entryY=0.5;entryDx=0;entryDy=0;strokeColor=default;align=center;verticalAlign=middle;fontFamily=Helvetica;fontSize=8;fontColor=default;labelBackgroundColor=default;resizable=1;startSize=1.1811;endArrow=classic;endSize=1.1811;" edge="1" parent="1" source="26" target="21">
                    <mxGeometry relative="1" as="geometry"/>
                </mxCell>
                <mxCell id="25" style="edgeStyle=orthogonalEdgeStyle;shape=connector;rounded=0;html=1;entryX=0;entryY=0.5;entryDx=0;entryDy=0;strokeColor=default;align=center;verticalAlign=middle;fontFamily=Helvetica;fontSize=8;fontColor=default;labelBackgroundColor=default;resizable=1;startSize=1.1811;endArrow=classic;endSize=1.1811;curved=0;" edge="1" parent="1" source="26" target="23">
                    <mxGeometry relative="1" as="geometry">
                        <Array as="points">
                            <mxPoint x="496.5099999999999" y="214"/>
                            <mxPoint x="496.5099999999999" y="214"/>
                            <mxPoint x="496.5099999999999" y="205"/>
                            <mxPoint x="503.5099999999999" y="205"/>
                        </Array>
                    </mxGeometry>
                </mxCell>
                <mxCell id="26" value="" style="shape=waypoint;sketch=0;fillStyle=solid;size=6;pointerEvents=1;points=[];fillColor=none;resizable=1;rotatable=0;perimeter=centerPerimeter;snapToPoint=1;rounded=0;align=center;verticalAlign=middle;fontFamily=Helvetica;fontSize=8;fontColor=default;labelBackgroundColor=default;strokeWidth=0;" vertex="1" parent="1">
                    <mxGeometry x="492.14199999999994" y="224.401" width="7.8740000000000006" height="7.8740000000000006" as="geometry"/>
                </mxCell>
                <mxCell id="27" style="edgeStyle=none;shape=connector;rounded=1;html=1;entryX=0.2;entryY=0.558;entryDx=0;entryDy=0;entryPerimeter=0;strokeColor=default;align=center;verticalAlign=middle;fontFamily=Helvetica;fontSize=8;fontColor=default;labelBackgroundColor=default;resizable=1;startSize=1.1811;endArrow=classic;endSize=1.1811;" edge="1" parent="1" source="19" target="26">
                    <mxGeometry relative="1" as="geometry"/>
                </mxCell>
                <mxCell id="54" style="edgeStyle=none;shape=connector;rounded=1;html=1;entryX=0;entryY=0.5;entryDx=0;entryDy=0;strokeColor=default;align=center;verticalAlign=middle;fontFamily=Helvetica;fontSize=8;fontColor=default;labelBackgroundColor=default;resizable=1;startSize=1.1811;endArrow=classic;endSize=1.1811;" edge="1" parent="1" source="29" target="49">
                    <mxGeometry relative="1" as="geometry"/>
                </mxCell>
                <mxCell id="29" value="\(\uparrow R\)" style="rounded=0;whiteSpace=wrap;html=1;fillColor=none;fontSize=8;" vertex="1" parent="1">
                    <mxGeometry x="566.9649999999999" y="220.45800000000003" width="23.622000000000046" height="15.74800000000001" as="geometry"/>
                </mxCell>
                <mxCell id="31" value="\(Z^{-1}\)" style="rounded=0;whiteSpace=wrap;html=1;fillColor=none;fontSize=8;" vertex="1" parent="1">
                    <mxGeometry x="370.071" y="220.464" width="23.622000000000046" height="15.74800000000001" as="geometry"/>
                </mxCell>
                <mxCell id="33" style="edgeStyle=none;shape=connector;rounded=1;html=1;entryX=0.081;entryY=0.491;entryDx=0;entryDy=0;entryPerimeter=0;strokeColor=default;align=center;verticalAlign=middle;fontFamily=Helvetica;fontSize=8;fontColor=default;labelBackgroundColor=default;resizable=1;startSize=1.1811;endArrow=classic;endSize=1.1811;" edge="1" parent="1" source="31" target="17">
                    <mxGeometry relative="1" as="geometry"/>
                </mxCell>
                <mxCell id="43" value="\(Z^{-1}\)" style="rounded=0;whiteSpace=wrap;html=1;fillColor=none;fontSize=8;" vertex="1" parent="1">
                    <mxGeometry x="440.958" y="220.461" width="23.622000000000046" height="15.74800000000001" as="geometry"/>
                </mxCell>
                <mxCell id="45" style="edgeStyle=none;shape=connector;rounded=1;html=1;entryX=0;entryY=0.5;entryDx=0;entryDy=0;strokeColor=default;align=center;verticalAlign=middle;fontFamily=Helvetica;fontSize=8;fontColor=default;labelBackgroundColor=default;resizable=1;startSize=1.1811;endArrow=classic;endSize=1.1811;" edge="1" parent="1" source="43" target="19">
                    <mxGeometry relative="1" as="geometry">
                        <mxPoint x="503.932" y="228.341" as="targetPoint"/>
                    </mxGeometry>
                </mxCell>
                <mxCell id="48" style="edgeStyle=none;shape=connector;rounded=1;html=1;entryX=0;entryY=0.5;entryDx=0;entryDy=0;strokeColor=default;align=center;verticalAlign=middle;fontFamily=Helvetica;fontSize=8;fontColor=default;labelBackgroundColor=default;resizable=1;startSize=1.1811;endArrow=classic;endSize=1.1811;" edge="1" parent="1" source="46" target="29">
                    <mxGeometry relative="1" as="geometry"/>
                </mxCell>
                <mxCell id="46" value="\(Z^{-1}\)" style="rounded=0;whiteSpace=wrap;html=1;fillColor=none;fontSize=8;" vertex="1" parent="1">
                    <mxGeometry x="535.4449999999999" y="220.45800000000003" width="23.622000000000046" height="15.74800000000001" as="geometry"/>
                </mxCell>
                <mxCell id="52" style="edgeStyle=none;shape=connector;rounded=1;html=1;entryX=0;entryY=0.5;entryDx=0;entryDy=0;strokeColor=default;align=center;verticalAlign=middle;fontFamily=Helvetica;fontSize=8;fontColor=default;labelBackgroundColor=default;resizable=1;startSize=1.1811;endArrow=classic;endSize=1.1811;" edge="1" parent="1" source="49" target="50">
                    <mxGeometry relative="1" as="geometry"/>
                </mxCell>
                <mxCell id="49" value="" style="shape=orEllipse;perimeter=ellipsePerimeter;whiteSpace=wrap;html=1;backgroundOutline=1;fillColor=none;" vertex="1" parent="1">
                    <mxGeometry x="598.4269999999998" y="220.466" width="15.748000000000017" height="15.748000000000017" as="geometry"/>
                </mxCell>
                <mxCell id="53" style="edgeStyle=orthogonalEdgeStyle;shape=connector;rounded=0;html=1;entryX=0.5;entryY=0;entryDx=0;entryDy=0;strokeColor=default;align=center;verticalAlign=middle;fontFamily=Helvetica;fontSize=8;fontColor=default;labelBackgroundColor=default;resizable=1;startSize=1.1811;endArrow=classic;endSize=1.1811;curved=0;" edge="1" parent="1" source="50" target="49">
                    <mxGeometry relative="1" as="geometry">
                        <Array as="points">
                            <mxPoint x="633.87" y="205"/>
                            <mxPoint x="605.87" y="205"/>
                        </Array>
                    </mxGeometry>
                </mxCell>
                <mxCell id="60" style="edgeStyle=none;shape=connector;rounded=1;html=1;entryX=0;entryY=0.5;entryDx=0;entryDy=0;strokeColor=default;align=center;verticalAlign=middle;fontFamily=Helvetica;fontSize=8;fontColor=default;labelBackgroundColor=default;resizable=1;startSize=1.1811;endArrow=classic;endSize=1.1811;" edge="1" parent="1" source="50" target="57">
                    <mxGeometry relative="1" as="geometry"/>
                </mxCell>
                <mxCell id="50" value="\(Z^{-1}\)" style="rounded=0;whiteSpace=wrap;html=1;fillColor=none;fontSize=8;" vertex="1" parent="1">
                    <mxGeometry x="622.055" y="220.45800000000003" width="23.622000000000046" height="15.74800000000001" as="geometry"/>
                </mxCell>
                <mxCell id="56" style="edgeStyle=none;shape=connector;rounded=1;html=1;entryX=0;entryY=0.5;entryDx=0;entryDy=0;strokeColor=default;align=center;verticalAlign=middle;fontFamily=Helvetica;fontSize=8;fontColor=default;labelBackgroundColor=default;resizable=1;startSize=1.1811;endArrow=classic;endSize=1.1811;" edge="1" parent="1" source="57" target="59">
                    <mxGeometry relative="1" as="geometry"/>
                </mxCell>
                <mxCell id="57" value="" style="shape=orEllipse;perimeter=ellipsePerimeter;whiteSpace=wrap;html=1;backgroundOutline=1;fillColor=none;" vertex="1" parent="1">
                    <mxGeometry x="653.5439999999998" y="220.46300000000002" width="15.748000000000017" height="15.748000000000017" as="geometry"/>
                </mxCell>
                <mxCell id="58" style="edgeStyle=orthogonalEdgeStyle;shape=connector;rounded=0;html=1;entryX=0.5;entryY=0;entryDx=0;entryDy=0;strokeColor=default;align=center;verticalAlign=middle;fontFamily=Helvetica;fontSize=8;fontColor=default;labelBackgroundColor=default;resizable=1;startSize=1.1811;endArrow=classic;endSize=1.1811;curved=0;" edge="1" parent="1" source="59" target="57">
                    <mxGeometry relative="1" as="geometry">
                        <Array as="points">
                            <mxPoint x="688.987" y="204.997"/>
                            <mxPoint x="660.987" y="204.997"/>
                        </Array>
                    </mxGeometry>
                </mxCell>
                <mxCell id="62" style="edgeStyle=none;shape=connector;rounded=1;html=1;entryX=0;entryY=0.5;entryDx=0;entryDy=0;strokeColor=default;align=center;verticalAlign=middle;fontFamily=Helvetica;fontSize=8;fontColor=default;labelBackgroundColor=default;resizable=1;startSize=1.1811;endArrow=classic;endSize=1.1811;" edge="1" parent="1" source="59" target="61">
                    <mxGeometry relative="1" as="geometry"/>
                </mxCell>
                <mxCell id="59" value="\(Z^{-1}\)" style="rounded=0;whiteSpace=wrap;html=1;fillColor=none;fontSize=8;" vertex="1" parent="1">
                    <mxGeometry x="677.1719999999999" y="220.45500000000004" width="23.622000000000046" height="15.74800000000001" as="geometry"/>
                </mxCell>
                <mxCell id="69" style="edgeStyle=none;shape=connector;rounded=1;html=1;entryX=0;entryY=0.5;entryDx=0;entryDy=0;strokeColor=default;align=center;verticalAlign=middle;fontFamily=Helvetica;fontSize=8;fontColor=default;labelBackgroundColor=default;resizable=1;startSize=1.1811;endArrow=classic;endSize=1.1811;" edge="1" parent="1" source="61" target="65">
                    <mxGeometry relative="1" as="geometry"/>
                </mxCell>
                <mxCell id="61" value="\(\cdots\)" style="text;html=1;align=center;verticalAlign=middle;whiteSpace=wrap;rounded=0;fontFamily=Helvetica;fontSize=8;fontColor=default;labelBackgroundColor=none;" vertex="1" parent="1">
                    <mxGeometry x="708.6949999999999" y="220.45900000000003" width="15.74800000000001" height="15.747999999999996" as="geometry"/>
                </mxCell>
                <mxCell id="64" style="edgeStyle=none;shape=connector;rounded=1;html=1;entryX=0;entryY=0.5;entryDx=0;entryDy=0;strokeColor=default;align=center;verticalAlign=middle;fontFamily=Helvetica;fontSize=8;fontColor=default;labelBackgroundColor=default;resizable=1;startSize=1.1811;endArrow=classic;endSize=1.1811;" edge="1" parent="1" source="65" target="68">
                    <mxGeometry relative="1" as="geometry"/>
                </mxCell>
                <mxCell id="65" value="" style="shape=orEllipse;perimeter=ellipsePerimeter;whiteSpace=wrap;html=1;backgroundOutline=1;fillColor=none;" vertex="1" parent="1">
                    <mxGeometry x="732.2909999999999" y="220.46000000000004" width="15.748000000000017" height="15.748000000000017" as="geometry"/>
                </mxCell>
                <mxCell id="66" style="edgeStyle=orthogonalEdgeStyle;shape=connector;rounded=0;html=1;entryX=0.5;entryY=0;entryDx=0;entryDy=0;strokeColor=default;align=center;verticalAlign=middle;fontFamily=Helvetica;fontSize=8;fontColor=default;labelBackgroundColor=default;resizable=1;startSize=1.1811;endArrow=classic;endSize=1.1811;curved=0;" edge="1" parent="1" source="68" target="65">
                    <mxGeometry relative="1" as="geometry">
                        <Array as="points">
                            <mxPoint x="767.7340000000002" y="204.99400000000003"/>
                            <mxPoint x="739.7340000000002" y="204.99400000000003"/>
                        </Array>
                    </mxGeometry>
                </mxCell>
                <mxCell id="67" style="edgeStyle=none;shape=connector;rounded=1;html=1;entryX=0;entryY=0.5;entryDx=0;entryDy=0;strokeColor=default;align=center;verticalAlign=middle;fontFamily=Helvetica;fontSize=8;fontColor=default;labelBackgroundColor=default;resizable=1;startSize=1.1811;endArrow=classic;endSize=1.1811;" edge="1" parent="1" source="68" target="70">
                    <mxGeometry relative="1" as="geometry">
                        <mxPoint x="787.7470000000001" y="227.997" as="targetPoint"/>
                    </mxGeometry>
                </mxCell>
                <mxCell id="68" value="\(Z^{-1}\)" style="rounded=0;whiteSpace=wrap;html=1;fillColor=none;fontSize=8;" vertex="1" parent="1">
                    <mxGeometry x="755.9190000000001" y="220.45200000000006" width="23.622000000000046" height="15.74800000000001" as="geometry"/>
                </mxCell>
                <mxCell id="70" value="\(y\)" style="text;html=1;align=center;verticalAlign=middle;whiteSpace=wrap;rounded=0;fontFamily=Helvetica;fontSize=8;fontColor=default;labelBackgroundColor=none;" vertex="1" parent="1">
                    <mxGeometry x="787.432" y="220.45600000000005" width="15.74800000000001" height="15.747999999999996" as="geometry"/>
                </mxCell>
                <mxCell id="73" value="" style="group" vertex="1" connectable="0" parent="1">
                    <mxGeometry x="330.691" y="244.099" width="228.3460000000003" height="23.611000000000047" as="geometry"/>
                </mxCell>
                <mxCell id="71" value="" style="verticalLabelPosition=bottom;shadow=0;dashed=0;align=center;html=1;verticalAlign=top;strokeWidth=1;shape=mxgraph.mockup.markup.curlyBrace;whiteSpace=wrap;strokeColor=#999999;rounded=0;sketch=0;fillStyle=solid;pointerEvents=1;fontFamily=Helvetica;fontSize=8;fontColor=default;labelBackgroundColor=default;resizable=1;fillColor=none;flipV=1;" vertex="1" parent="73">
                    <mxGeometry width="228.3460000000003" height="7.8740000000000006" as="geometry"/>
                </mxCell>
                <mxCell id="72" value="\(N\)" style="text;html=1;align=center;verticalAlign=middle;whiteSpace=wrap;rounded=0;fontFamily=Helvetica;fontSize=8;fontColor=default;labelBackgroundColor=none;" vertex="1" parent="73">
                    <mxGeometry x="106.31700000000001" y="7.863000000000028" width="15.74800000000001" height="15.747999999999996" as="geometry"/>
                </mxCell>
                <mxCell id="75" value="" style="verticalLabelPosition=bottom;shadow=0;dashed=0;align=center;html=1;verticalAlign=top;strokeWidth=1;shape=mxgraph.mockup.markup.curlyBrace;whiteSpace=wrap;strokeColor=#999999;rounded=0;sketch=0;fillStyle=solid;pointerEvents=1;fontFamily=Helvetica;fontSize=8;fontColor=default;labelBackgroundColor=default;resizable=1;fillColor=none;flipV=1;" vertex="1" parent="1">
                    <mxGeometry x="598.408" y="244.096" width="181.10200000000015" height="7.8740000000000006" as="geometry"/>
                </mxCell>
                <mxCell id="76" value="\(N\)" style="text;html=1;align=center;verticalAlign=middle;whiteSpace=wrap;rounded=0;fontFamily=Helvetica;fontSize=8;fontColor=default;labelBackgroundColor=none;" vertex="1" parent="1">
                    <mxGeometry x="681.105" y="251.95900000000003" width="15.74800000000001" height="15.747999999999996" as="geometry"/>
                </mxCell>
                <mxCell id="77" style="edgeStyle=none;shape=connector;rounded=1;html=1;entryX=0;entryY=0.5;entryDx=0;entryDy=0;strokeColor=default;align=center;verticalAlign=middle;fontFamily=Helvetica;fontSize=8;fontColor=default;labelBackgroundColor=default;resizable=1;startSize=1.1811;endArrow=classic;endSize=1.1811;" edge="1" parent="1" source="78" target="81">
                    <mxGeometry relative="1" as="geometry"/>
                </mxCell>
                <mxCell id="78" value="" style="shape=orEllipse;perimeter=ellipsePerimeter;whiteSpace=wrap;html=1;backgroundOutline=1;fillColor=none;" vertex="1" parent="1">
                    <mxGeometry x="346.44399999999973" y="299.213" width="15.748000000000017" height="15.748000000000017" as="geometry"/>
                </mxCell>
                <mxCell id="79" style="edgeStyle=orthogonalEdgeStyle;shape=connector;rounded=0;html=1;entryX=0.5;entryY=0;entryDx=0;entryDy=0;strokeColor=default;align=center;verticalAlign=middle;fontFamily=Helvetica;fontSize=8;fontColor=default;labelBackgroundColor=default;resizable=1;startSize=1.1811;endArrow=classic;endSize=1.1811;curved=0;" edge="1" parent="1" source="81" target="78">
                    <mxGeometry relative="1" as="geometry">
                        <Array as="points">
                            <mxPoint x="381.88699999999994" y="283.747"/>
                            <mxPoint x="353.88699999999994" y="283.747"/>
                        </Array>
                    </mxGeometry>
                </mxCell>
                <mxCell id="80" style="edgeStyle=none;shape=connector;rounded=1;html=1;entryX=0;entryY=0.5;entryDx=0;entryDy=0;strokeColor=default;align=center;verticalAlign=middle;fontFamily=Helvetica;fontSize=8;fontColor=default;labelBackgroundColor=default;resizable=1;startSize=1.1811;endArrow=classic;endSize=1.1811;" edge="1" parent="1" source="81" target="83">
                    <mxGeometry relative="1" as="geometry"/>
                </mxCell>
                <mxCell id="81" value="\(Z^{-1}\)" style="rounded=0;whiteSpace=wrap;html=1;fillColor=none;fontSize=8;" vertex="1" parent="1">
                    <mxGeometry x="370.0719999999999" y="299.20500000000004" width="23.622000000000046" height="15.74800000000001" as="geometry"/>
                </mxCell>
                <mxCell id="82" style="edgeStyle=none;shape=connector;rounded=1;html=1;entryX=0;entryY=0.5;entryDx=0;entryDy=0;strokeColor=default;align=center;verticalAlign=middle;fontFamily=Helvetica;fontSize=8;fontColor=default;labelBackgroundColor=default;resizable=1;startSize=1.1811;endArrow=classic;endSize=1.1811;" edge="1" parent="1" source="83" target="86">
                    <mxGeometry relative="1" as="geometry"/>
                </mxCell>
                <mxCell id="83" value="" style="shape=orEllipse;perimeter=ellipsePerimeter;whiteSpace=wrap;html=1;backgroundOutline=1;fillColor=none;" vertex="1" parent="1">
                    <mxGeometry x="401.5609999999997" y="299.21000000000004" width="15.748000000000017" height="15.748000000000017" as="geometry"/>
                </mxCell>
                <mxCell id="84" style="edgeStyle=orthogonalEdgeStyle;shape=connector;rounded=0;html=1;entryX=0.5;entryY=0;entryDx=0;entryDy=0;strokeColor=default;align=center;verticalAlign=middle;fontFamily=Helvetica;fontSize=8;fontColor=default;labelBackgroundColor=default;resizable=1;startSize=1.1811;endArrow=classic;endSize=1.1811;curved=0;" edge="1" parent="1" source="86" target="83">
                    <mxGeometry relative="1" as="geometry">
                        <Array as="points">
                            <mxPoint x="437.0039999999999" y="283.744"/>
                            <mxPoint x="409.0039999999999" y="283.744"/>
                        </Array>
                    </mxGeometry>
                </mxCell>
                <mxCell id="85" style="edgeStyle=none;shape=connector;rounded=1;html=1;entryX=0;entryY=0.5;entryDx=0;entryDy=0;strokeColor=default;align=center;verticalAlign=middle;fontFamily=Helvetica;fontSize=8;fontColor=default;labelBackgroundColor=default;resizable=1;startSize=1.1811;endArrow=classic;endSize=1.1811;" edge="1" parent="1" source="86" target="88">
                    <mxGeometry relative="1" as="geometry"/>
                </mxCell>
                <mxCell id="86" value="\(Z^{-1}\)" style="rounded=0;whiteSpace=wrap;html=1;fillColor=none;fontSize=8;" vertex="1" parent="1">
                    <mxGeometry x="425.18899999999985" y="299.20200000000006" width="23.622000000000046" height="15.74800000000001" as="geometry"/>
                </mxCell>
                <mxCell id="87" style="edgeStyle=none;shape=connector;rounded=1;html=1;entryX=0;entryY=0.5;entryDx=0;entryDy=0;strokeColor=default;align=center;verticalAlign=middle;fontFamily=Helvetica;fontSize=8;fontColor=default;labelBackgroundColor=default;resizable=1;startSize=1.1811;endArrow=classic;endSize=1.1811;" edge="1" parent="1" source="88" target="90">
                    <mxGeometry relative="1" as="geometry"/>
                </mxCell>
                <mxCell id="88" value="\(\cdots\)" style="text;html=1;align=center;verticalAlign=middle;whiteSpace=wrap;rounded=0;fontFamily=Helvetica;fontSize=8;fontColor=default;labelBackgroundColor=none;" vertex="1" parent="1">
                    <mxGeometry x="456.7119999999999" y="299.206" width="15.74800000000001" height="15.747999999999996" as="geometry"/>
                </mxCell>
                <mxCell id="89" style="edgeStyle=none;shape=connector;rounded=1;html=1;entryX=0;entryY=0.5;entryDx=0;entryDy=0;strokeColor=default;align=center;verticalAlign=middle;fontFamily=Helvetica;fontSize=8;fontColor=default;labelBackgroundColor=default;resizable=1;startSize=1.1811;endArrow=classic;endSize=1.1811;" edge="1" parent="1" source="90" target="92">
                    <mxGeometry relative="1" as="geometry"/>
                </mxCell>
                <mxCell id="90" value="" style="shape=orEllipse;perimeter=ellipsePerimeter;whiteSpace=wrap;html=1;backgroundOutline=1;fillColor=none;" vertex="1" parent="1">
                    <mxGeometry x="480.3079999999999" y="299.20700000000005" width="15.748000000000017" height="15.748000000000017" as="geometry"/>
                </mxCell>
                <mxCell id="91" style="edgeStyle=orthogonalEdgeStyle;shape=connector;rounded=0;html=1;entryX=0.5;entryY=0;entryDx=0;entryDy=0;strokeColor=default;align=center;verticalAlign=middle;fontFamily=Helvetica;fontSize=8;fontColor=default;labelBackgroundColor=default;resizable=1;startSize=1.1811;endArrow=classic;endSize=1.1811;curved=0;" edge="1" parent="1" source="92" target="90">
                    <mxGeometry relative="1" as="geometry">
                        <Array as="points">
                            <mxPoint x="515.751" y="283.74100000000004"/>
                            <mxPoint x="487.7510000000001" y="283.74100000000004"/>
                        </Array>
                    </mxGeometry>
                </mxCell>
                <mxCell id="98" style="edgeStyle=none;shape=connector;rounded=1;html=1;entryX=0;entryY=0.5;entryDx=0;entryDy=0;strokeColor=default;align=center;verticalAlign=middle;fontFamily=Helvetica;fontSize=8;fontColor=default;labelBackgroundColor=default;resizable=1;startSize=1.1811;endArrow=classic;endSize=1.1811;" edge="1" parent="1" source="92" target="97">
                    <mxGeometry relative="1" as="geometry"/>
                </mxCell>
                <mxCell id="92" value="\(Z^{-1}\)" style="rounded=0;whiteSpace=wrap;html=1;fillColor=none;fontSize=8;" vertex="1" parent="1">
                    <mxGeometry x="503.9359999999999" y="299.19900000000007" width="23.622000000000046" height="15.74800000000001" as="geometry"/>
                </mxCell>
                <mxCell id="93" value="" style="verticalLabelPosition=bottom;shadow=0;dashed=0;align=center;html=1;verticalAlign=top;strokeWidth=1;shape=mxgraph.mockup.markup.curlyBrace;whiteSpace=wrap;strokeColor=#999999;rounded=0;sketch=0;fillStyle=solid;pointerEvents=1;fontFamily=Helvetica;fontSize=8;fontColor=default;labelBackgroundColor=default;resizable=1;fillColor=none;flipV=1;" vertex="1" parent="1">
                    <mxGeometry x="346.42499999999995" y="322.843" width="181.10200000000015" height="7.8740000000000006" as="geometry"/>
                </mxCell>
                <mxCell id="94" value="\(N\)" style="text;html=1;align=center;verticalAlign=middle;whiteSpace=wrap;rounded=0;fontFamily=Helvetica;fontSize=8;fontColor=default;labelBackgroundColor=none;" vertex="1" parent="1">
                    <mxGeometry x="429.12199999999996" y="330.7060000000001" width="15.74800000000001" height="15.747999999999996" as="geometry"/>
                </mxCell>
                <mxCell id="96" style="edgeStyle=none;shape=connector;rounded=1;html=1;entryX=0;entryY=0.5;entryDx=0;entryDy=0;strokeColor=default;align=center;verticalAlign=middle;fontFamily=Helvetica;fontSize=8;fontColor=default;labelBackgroundColor=default;resizable=1;startSize=1.1811;endArrow=classic;endSize=1.1811;" edge="1" parent="1" source="95" target="78">
                    <mxGeometry relative="1" as="geometry"/>
                </mxCell>
                <mxCell id="95" value="\(x\)" style="text;html=1;align=center;verticalAlign=middle;whiteSpace=wrap;rounded=0;fontFamily=Helvetica;fontSize=8;fontColor=default;labelBackgroundColor=none;" vertex="1" parent="1">
                    <mxGeometry x="322.838" y="299.212" width="15.74800000000001" height="15.747999999999996" as="geometry"/>
                </mxCell>
                <mxCell id="97" value="\(\downarrow R\)" style="rounded=0;whiteSpace=wrap;html=1;fillColor=none;fontSize=8;" vertex="1" parent="1">
                    <mxGeometry x="535.4719999999999" y="299.20500000000004" width="23.622000000000046" height="15.74800000000001" as="geometry"/>
                </mxCell>
                <mxCell id="99" style="edgeStyle=none;shape=connector;rounded=1;html=1;entryX=0;entryY=0.5;entryDx=0;entryDy=0;strokeColor=default;align=center;verticalAlign=middle;fontFamily=Helvetica;fontSize=8;fontColor=default;labelBackgroundColor=default;resizable=1;startSize=1.1811;endArrow=classic;endSize=1.1811;" edge="1" parent="1" source="100" target="121">
                    <mxGeometry relative="1" as="geometry"/>
                </mxCell>
                <mxCell id="100" value="" style="shape=orEllipse;perimeter=ellipsePerimeter;whiteSpace=wrap;html=1;backgroundOutline=1;fillColor=none;" vertex="1" parent="1">
                    <mxGeometry x="582.67" y="299.209" width="15.748000000000017" height="15.748000000000017" as="geometry"/>
                </mxCell>
                <mxCell id="101" style="edgeStyle=none;html=1;entryX=0.5;entryY=0;entryDx=0;entryDy=0;endSize=1.1811;startSize=1.1811;" edge="1" parent="1" source="102" target="100">
                    <mxGeometry relative="1" as="geometry"/>
                </mxCell>
                <mxCell id="102" value="\(Z^{-M}\)" style="rounded=0;whiteSpace=wrap;html=1;fillColor=none;fontSize=8;" vertex="1" parent="1">
                    <mxGeometry x="574.8009999999999" y="275.584" width="31.49600000000005" height="15.74800000000001" as="geometry"/>
                </mxCell>
                <mxCell id="105" style="edgeStyle=none;shape=connector;rounded=1;html=1;entryX=0;entryY=0.5;entryDx=0;entryDy=0;strokeColor=default;align=center;verticalAlign=middle;fontFamily=Helvetica;fontSize=8;fontColor=default;labelBackgroundColor=default;resizable=1;startSize=1.1811;endArrow=classic;endSize=1.1811;" edge="1" parent="1" source="106" target="123">
                    <mxGeometry relative="1" as="geometry"/>
                </mxCell>
                <mxCell id="106" value="" style="shape=orEllipse;perimeter=ellipsePerimeter;whiteSpace=wrap;html=1;backgroundOutline=1;fillColor=none;" vertex="1" parent="1">
                    <mxGeometry x="653.5469999999999" y="299.206" width="15.748000000000017" height="15.748000000000017" as="geometry"/>
                </mxCell>
                <mxCell id="107" style="edgeStyle=none;html=1;entryX=0.5;entryY=0;entryDx=0;entryDy=0;endSize=1.1811;startSize=1.1811;" edge="1" parent="1" source="108" target="106">
                    <mxGeometry relative="1" as="geometry"/>
                </mxCell>
                <mxCell id="108" value="\(Z^{-M}\)" style="rounded=0;whiteSpace=wrap;html=1;fillColor=none;fontSize=8;" vertex="1" parent="1">
                    <mxGeometry x="645.678" y="275.581" width="31.49600000000005" height="15.74800000000001" as="geometry"/>
                </mxCell>
                <mxCell id="109" style="edgeStyle=none;shape=connector;rounded=1;html=1;entryX=0;entryY=0.5;entryDx=0;entryDy=0;strokeColor=default;align=center;verticalAlign=middle;fontFamily=Helvetica;fontSize=8;fontColor=default;labelBackgroundColor=default;resizable=1;startSize=1.1811;endArrow=classic;endSize=1.1811;" edge="1" parent="1" source="111" target="106">
                    <mxGeometry relative="1" as="geometry"/>
                </mxCell>
                <mxCell id="110" style="edgeStyle=orthogonalEdgeStyle;shape=connector;rounded=0;html=1;entryX=0;entryY=0.5;entryDx=0;entryDy=0;strokeColor=default;align=center;verticalAlign=middle;fontFamily=Helvetica;fontSize=8;fontColor=default;labelBackgroundColor=default;resizable=1;startSize=1.1811;endArrow=classic;endSize=1.1811;curved=0;" edge="1" parent="1" source="111" target="108">
                    <mxGeometry relative="1" as="geometry">
                        <Array as="points">
                            <mxPoint x="637.977" y="292.737"/>
                            <mxPoint x="637.977" y="292.737"/>
                            <mxPoint x="637.977" y="283.737"/>
                            <mxPoint x="645.977" y="283.737"/>
                        </Array>
                    </mxGeometry>
                </mxCell>
                <mxCell id="111" value="" style="shape=waypoint;sketch=0;fillStyle=solid;size=6;pointerEvents=1;points=[];fillColor=none;resizable=1;rotatable=0;perimeter=centerPerimeter;snapToPoint=1;rounded=0;align=center;verticalAlign=middle;fontFamily=Helvetica;fontSize=8;fontColor=default;labelBackgroundColor=default;strokeWidth=0;" vertex="1" parent="1">
                    <mxGeometry x="633.862" y="303.141" width="7.8740000000000006" height="7.8740000000000006" as="geometry"/>
                </mxCell>
                <mxCell id="112" value="\(\cdots\)" style="text;html=1;align=center;verticalAlign=middle;whiteSpace=wrap;rounded=0;fontFamily=Helvetica;fontSize=8;fontColor=default;labelBackgroundColor=none;" vertex="1" parent="1">
                    <mxGeometry x="708.6849999999998" y="299.199" width="15.74800000000001" height="15.747999999999996" as="geometry"/>
                </mxCell>
                <mxCell id="113" style="edgeStyle=none;shape=connector;rounded=1;html=1;entryX=0;entryY=0.5;entryDx=0;entryDy=0;strokeColor=default;align=center;verticalAlign=middle;fontFamily=Helvetica;fontSize=8;fontColor=default;labelBackgroundColor=default;resizable=1;startSize=1.1811;endArrow=classic;endSize=1.1811;" edge="1" parent="1" target="125">
                    <mxGeometry relative="1" as="geometry">
                        <mxPoint x="755.9219999999955" y="307.07700000000006" as="sourcePoint"/>
                    </mxGeometry>
                </mxCell>
                <mxCell id="114" value="" style="shape=orEllipse;perimeter=ellipsePerimeter;whiteSpace=wrap;html=1;backgroundOutline=1;fillColor=none;" vertex="1" parent="1">
                    <mxGeometry x="748.0439999999998" y="299.20300000000003" width="15.748000000000017" height="15.748000000000017" as="geometry"/>
                </mxCell>
                <mxCell id="115" style="edgeStyle=none;html=1;entryX=0.5;entryY=0;entryDx=0;entryDy=0;endSize=1.1811;startSize=1.1811;" edge="1" parent="1" source="116" target="114">
                    <mxGeometry relative="1" as="geometry"/>
                </mxCell>
                <mxCell id="116" value="\(Z^{-M}\)" style="rounded=0;whiteSpace=wrap;html=1;fillColor=none;fontSize=8;" vertex="1" parent="1">
                    <mxGeometry x="740.175" y="275.57800000000003" width="31.49600000000005" height="15.74800000000001" as="geometry"/>
                </mxCell>
                <mxCell id="117" style="edgeStyle=none;shape=connector;rounded=1;html=1;entryX=0;entryY=0.5;entryDx=0;entryDy=0;strokeColor=default;align=center;verticalAlign=middle;fontFamily=Helvetica;fontSize=8;fontColor=default;labelBackgroundColor=default;resizable=1;startSize=1.1811;endArrow=classic;endSize=1.1811;" edge="1" parent="1" source="119" target="114">
                    <mxGeometry relative="1" as="geometry"/>
                </mxCell>
                <mxCell id="118" style="edgeStyle=orthogonalEdgeStyle;shape=connector;rounded=0;html=1;entryX=0;entryY=0.5;entryDx=0;entryDy=0;strokeColor=default;align=center;verticalAlign=middle;fontFamily=Helvetica;fontSize=8;fontColor=default;labelBackgroundColor=default;resizable=1;startSize=1.1811;endArrow=classic;endSize=1.1811;curved=0;" edge="1" parent="1" source="119" target="116">
                    <mxGeometry relative="1" as="geometry">
                        <Array as="points">
                            <mxPoint x="732.7269999999999" y="292.737"/>
                            <mxPoint x="732.7269999999999" y="292.737"/>
                            <mxPoint x="732.7269999999999" y="283.737"/>
                            <mxPoint x="739.7269999999999" y="283.737"/>
                        </Array>
                    </mxGeometry>
                </mxCell>
                <mxCell id="119" value="" style="shape=waypoint;sketch=0;fillStyle=solid;size=6;pointerEvents=1;points=[];fillColor=none;resizable=1;rotatable=0;perimeter=centerPerimeter;snapToPoint=1;rounded=0;align=center;verticalAlign=middle;fontFamily=Helvetica;fontSize=8;fontColor=default;labelBackgroundColor=default;strokeWidth=0;" vertex="1" parent="1">
                    <mxGeometry x="728.3589999999999" y="303.13800000000003" width="7.8740000000000006" height="7.8740000000000006" as="geometry"/>
                </mxCell>
                <mxCell id="120" style="edgeStyle=none;shape=connector;rounded=1;html=1;entryX=0.2;entryY=0.558;entryDx=0;entryDy=0;entryPerimeter=0;strokeColor=default;align=center;verticalAlign=middle;fontFamily=Helvetica;fontSize=8;fontColor=default;labelBackgroundColor=default;resizable=1;startSize=1.1811;endArrow=classic;endSize=1.1811;" edge="1" parent="1" source="112" target="119">
                    <mxGeometry relative="1" as="geometry"/>
                </mxCell>
                <mxCell id="121" value="\(Z^{-1}\)" style="rounded=0;whiteSpace=wrap;html=1;fillColor=none;fontSize=8;" vertex="1" parent="1">
                    <mxGeometry x="606.288" y="299.201" width="23.622000000000046" height="15.74800000000001" as="geometry"/>
                </mxCell>
                <mxCell id="122" style="edgeStyle=none;shape=connector;rounded=1;html=1;entryX=0.081;entryY=0.491;entryDx=0;entryDy=0;entryPerimeter=0;strokeColor=default;align=center;verticalAlign=middle;fontFamily=Helvetica;fontSize=8;fontColor=default;labelBackgroundColor=default;resizable=1;startSize=1.1811;endArrow=classic;endSize=1.1811;" edge="1" parent="1" source="121" target="111">
                    <mxGeometry relative="1" as="geometry"/>
                </mxCell>
                <mxCell id="123" value="\(Z^{-1}\)" style="rounded=0;whiteSpace=wrap;html=1;fillColor=none;fontSize=8;" vertex="1" parent="1">
                    <mxGeometry x="677.175" y="299.19800000000004" width="23.622000000000046" height="15.74800000000001" as="geometry"/>
                </mxCell>
                <mxCell id="124" style="edgeStyle=none;shape=connector;rounded=1;html=1;entryX=0;entryY=0.5;entryDx=0;entryDy=0;strokeColor=default;align=center;verticalAlign=middle;fontFamily=Helvetica;fontSize=8;fontColor=default;labelBackgroundColor=default;resizable=1;startSize=1.1811;endArrow=classic;endSize=1.1811;" edge="1" parent="1" source="123" target="112">
                    <mxGeometry relative="1" as="geometry">
                        <mxPoint x="740.149" y="307.07800000000003" as="targetPoint"/>
                    </mxGeometry>
                </mxCell>
                <mxCell id="134" style="edgeStyle=none;shape=connector;rounded=1;html=1;entryX=0;entryY=0.5;entryDx=0;entryDy=0;strokeColor=default;align=center;verticalAlign=middle;fontFamily=Helvetica;fontSize=8;fontColor=default;labelBackgroundColor=default;resizable=1;startSize=1.1811;endArrow=classic;endSize=1.1811;" edge="1" parent="1" source="125" target="133">
                    <mxGeometry relative="1" as="geometry"/>
                </mxCell>
                <mxCell id="125" value="\(Z^{-1}\)" style="rounded=0;whiteSpace=wrap;html=1;fillColor=none;fontSize=8;" vertex="1" parent="1">
                    <mxGeometry x="771.6619999999999" y="299.19500000000005" width="23.622000000000046" height="15.74800000000001" as="geometry"/>
                </mxCell>
                <mxCell id="126" value="" style="group" vertex="1" connectable="0" parent="1">
                    <mxGeometry x="566.9079999999999" y="322.836" width="228.3460000000003" height="23.611000000000047" as="geometry"/>
                </mxCell>
                <mxCell id="127" value="" style="verticalLabelPosition=bottom;shadow=0;dashed=0;align=center;html=1;verticalAlign=top;strokeWidth=1;shape=mxgraph.mockup.markup.curlyBrace;whiteSpace=wrap;strokeColor=#999999;rounded=0;sketch=0;fillStyle=solid;pointerEvents=1;fontFamily=Helvetica;fontSize=8;fontColor=default;labelBackgroundColor=default;resizable=1;fillColor=none;flipV=1;" vertex="1" parent="126">
                    <mxGeometry width="228.3460000000003" height="7.8740000000000006" as="geometry"/>
                </mxCell>
                <mxCell id="128" value="\(N\)" style="text;html=1;align=center;verticalAlign=middle;whiteSpace=wrap;rounded=0;fontFamily=Helvetica;fontSize=8;fontColor=default;labelBackgroundColor=none;" vertex="1" parent="126">
                    <mxGeometry x="106.31700000000001" y="7.863000000000028" width="15.74800000000001" height="15.747999999999996" as="geometry"/>
                </mxCell>
                <mxCell id="131" style="edgeStyle=none;shape=connector;rounded=1;html=1;entryX=0;entryY=0.5;entryDx=0;entryDy=0;strokeColor=default;align=center;verticalAlign=middle;fontFamily=Helvetica;fontSize=8;fontColor=default;labelBackgroundColor=default;resizable=1;startSize=1.1811;endArrow=classic;endSize=1.1811;" edge="1" parent="1" source="129" target="100">
                    <mxGeometry relative="1" as="geometry"/>
                </mxCell>
                <mxCell id="132" style="edgeStyle=orthogonalEdgeStyle;shape=connector;rounded=0;html=1;entryX=0;entryY=0.5;entryDx=0;entryDy=0;strokeColor=default;align=center;verticalAlign=middle;fontFamily=Helvetica;fontSize=8;fontColor=default;labelBackgroundColor=default;resizable=1;startSize=1.1811;endArrow=classic;endSize=1.1811;curved=0;" edge="1" parent="1" source="129" target="102">
                    <mxGeometry relative="1" as="geometry">
                        <Array as="points">
                            <mxPoint x="567" y="293"/>
                            <mxPoint x="567" y="293"/>
                            <mxPoint x="567" y="284"/>
                        </Array>
                    </mxGeometry>
                </mxCell>
                <mxCell id="129" value="" style="shape=waypoint;sketch=0;fillStyle=solid;size=6;pointerEvents=1;points=[];fillColor=none;resizable=1;rotatable=0;perimeter=centerPerimeter;snapToPoint=1;rounded=0;align=center;verticalAlign=middle;fontFamily=Helvetica;fontSize=8;fontColor=default;labelBackgroundColor=default;strokeWidth=0;" vertex="1" parent="1">
                    <mxGeometry x="563.0089999999999" y="303.148" width="7.8740000000000006" height="7.8740000000000006" as="geometry"/>
                </mxCell>
                <mxCell id="130" style="edgeStyle=none;shape=connector;rounded=1;html=1;entryX=0.364;entryY=0.523;entryDx=0;entryDy=0;entryPerimeter=0;strokeColor=default;align=center;verticalAlign=middle;fontFamily=Helvetica;fontSize=8;fontColor=default;labelBackgroundColor=default;resizable=1;startSize=1.1811;endArrow=classic;endSize=1.1811;" edge="1" parent="1" source="97" target="129">
                    <mxGeometry relative="1" as="geometry"/>
                </mxCell>
                <mxCell id="133" value="\(y\)" style="text;html=1;align=center;verticalAlign=middle;whiteSpace=wrap;rounded=0;fontFamily=Helvetica;fontSize=8;fontColor=default;labelBackgroundColor=none;" vertex="1" parent="1">
                    <mxGeometry x="803.179" y="299.19300000000004" width="15.74800000000001" height="15.747999999999996" as="geometry"/>
                </mxCell>
            </root>
        </mxGraphModel>
    </diagram>
</mxfile>